<svg width="212" height="212" viewBox="0 0 212 212" fill="none" xmlns="http://www.w3.org/2000/svg">
<path d="M140.347 145.519C150.069 155.241 159.791 164.963 169.513 174.685C172.309 177.482 167.971 181.823 165.173 179.025C155.451 169.303 145.729 159.581 136.007 149.859C133.211 147.063 137.549 142.722 140.347 145.519Z" fill="#FD7E14"/>
<path d="M167.343 179.924C124.92 179.924 82.4972 179.924 40.0744 179.924C36.1252 179.924 36.1187 173.786 40.0744 173.786C82.4972 173.786 124.92 173.786 167.343 173.786C171.292 173.786 171.299 179.924 167.343 179.924Z" fill="#FD7E14"/>
<path d="M175.657 51.6856L141.019 150.451H42.0673L8.83331 51.6856H175.657ZM21.5466 72.1484C22.1708 72.1484 22.7948 72.1484 23.4189 72.1484C33.7352 72.1484 44.0517 72.1484 54.3681 72.1484C54.3681 67.1688 54.3681 62.1891 54.3681 57.2096H16.5197L21.5466 72.1484ZM35.5964 113.902C35.9386 113.767 36.3271 113.687 36.7675 113.687C42.6342 113.687 48.501 113.687 54.3679 113.687C54.3679 101.887 54.3679 90.0864 54.3679 78.286C44.1158 78.286 33.8638 78.286 23.6117 78.286L35.5964 113.902ZM148.056 113.697L160.475 78.2858C150.692 78.2858 140.908 78.2858 131.125 78.2858C131.125 90.0862 131.125 101.887 131.125 113.687C136.704 113.687 142.284 113.687 147.864 113.687C147.93 113.687 147.992 113.693 148.056 113.697ZM124.987 78.2858C115.837 78.2858 106.687 78.2858 97.5375 78.2858C97.5375 90.0862 97.5375 101.887 97.5375 113.687C106.687 113.687 115.837 113.687 124.987 113.687C124.987 101.887 124.987 90.0862 124.987 78.2858ZM97.5375 72.1484C106.687 72.1484 115.837 72.1484 124.987 72.1484C124.987 67.1688 124.987 62.1891 124.987 57.2096H97.5375C97.5375 62.1891 97.5375 67.1687 97.5375 72.1484ZM91.4001 57.2094H60.5057C60.5057 62.189 60.5057 67.1687 60.5057 72.1482C70.8039 72.1482 81.102 72.1482 91.4001 72.1482C91.4001 67.1687 91.4001 62.1891 91.4001 57.2094ZM97.5375 119.825C97.5375 128.192 97.5375 136.56 97.5375 144.927H124.987C124.987 136.56 124.987 128.192 124.987 119.825C115.837 119.825 106.687 119.825 97.5375 119.825ZM91.4001 119.825C81.1018 119.825 70.8037 119.825 60.5057 119.825C60.5057 128.192 60.5057 136.56 60.5057 144.927H91.4001C91.4001 136.56 91.4001 128.192 91.4001 119.825ZM91.4001 113.687C91.4001 101.887 91.4001 90.0864 91.4001 78.286C81.1018 78.286 70.8037 78.286 60.5057 78.286C60.5057 90.0864 60.5057 101.887 60.5057 113.687C70.8037 113.687 81.1018 113.687 91.4001 113.687ZM131.125 57.2094C131.125 62.189 131.125 67.1687 131.125 72.1482C141.626 72.1482 152.127 72.1482 162.627 72.1482L167.867 57.2094H131.125ZM145.907 119.825C140.979 119.825 136.052 119.825 131.125 119.825C131.125 128.192 131.125 136.56 131.125 144.927H137.103L145.907 119.825ZM46.0363 144.927H54.3681C54.3681 136.56 54.3681 128.192 54.3681 119.825C48.7752 119.825 43.1823 119.825 37.5895 119.825L46.0363 144.927Z" fill="#FD7E14"/>
<path d="M178.64 24.5467L185.235 27.0949L173.132 58.4227L166.536 55.8745L178.64 24.5467Z" fill="#FD7E14"/>
<path d="M203.167 32.9197L199.653 42.9766L174.792 34.2885L178.307 24.2316L203.167 32.9197Z" fill="#FD7E14"/>
<path d="M124.699 195.133C116.523 195.133 109.895 188.505 109.895 180.329C109.895 172.153 116.523 165.525 124.699 165.525C132.875 165.525 139.503 172.153 139.503 180.329C139.503 188.505 132.875 195.133 124.699 195.133Z" fill="#FD7E14"/>
<path d="M63.2007 195.133C55.0248 195.133 48.397 188.505 48.397 180.329C48.397 172.153 55.0248 165.525 63.2007 165.525C71.3766 165.525 78.0045 172.153 78.0045 180.329C78.0045 188.505 71.3766 195.133 63.2007 195.133Z" fill="#FD7E14"/>
<path opacity="0.15" d="M94.3353 179.924V173.786H111.419C113.834 168.892 118.872 165.525 124.699 165.525C130.525 165.525 135.563 168.892 137.979 173.786H159.934C152.155 166.008 144.377 158.229 136.598 150.451H94.3351V51.6856H168.155L174.866 34.3148L174.791 34.2884L178.305 24.2312L203.166 32.9194L199.652 42.9765L181.544 36.6488L174.891 53.8681L142.125 147.297C151.202 156.375 160.279 165.452 169.356 174.529C169.373 174.544 169.388 174.561 169.404 174.577C169.44 174.613 169.476 174.649 169.512 174.685C170.562 175.735 170.606 177.003 170.103 178.029C169.73 179.063 168.84 179.885 167.432 179.919C167.421 179.92 167.41 179.92 167.399 179.921C167.38 179.921 167.362 179.924 167.342 179.924H167.28C167.219 179.925 167.159 179.926 167.099 179.924H139.492C139.495 180.059 139.502 180.193 139.502 180.329C139.502 188.505 132.874 195.133 124.698 195.133C116.522 195.133 109.894 188.505 109.894 180.329C109.894 180.193 109.901 180.059 109.905 179.924H94.3353ZM124.987 57.2094H97.537V72.1482H124.987V57.2094ZM124.987 78.2859H97.537V113.687H124.987V78.2859ZM124.987 119.825H97.537V144.927H124.987V119.825ZM167.866 57.2094H131.124V72.1482H162.627L167.866 57.2094ZM148.055 113.697L160.475 78.2858H131.124V113.687H147.863C147.929 113.687 147.991 113.693 148.055 113.697ZM145.906 119.825H131.124V144.927H137.003C137.042 144.909 137.081 144.894 137.12 144.876L145.906 119.825Z" fill="black"/>
<path d="M140.633 33.3748H149.54V23.8198H151.808V33.3748H160.715V35.6422H151.808V45.1972H149.54V35.6422H140.633V33.3748Z" fill="#FD7E14"/>
<path d="M131.902 46.2478H137.225V40.5383H138.58V46.2478H143.902V47.6027H138.58V53.3122H137.225V47.6027H131.902V46.2478Z" fill="#FD7E14"/>
<path d="M125.956 21.306H130.094V16.8674H131.147V21.306H135.285V22.3593H131.147V26.7979H130.094V22.3593H125.956V21.306Z" fill="#FD7E14"/>
</svg>
